Patient5_TMGait_0pt45_1_right_07_EMG.mot
version=1
nRows=16
nColumns=33
inDegrees=no
endheader
time	1LAddLong	2LGlutMax	3LGlutMed	4LIliopsoas	5LSemiMemb	6LBicFemLong	7LRecFem	8LTensFascLat	9LVastMed	10LVasLat	11LGasMed	12lGasLat	13LTibAnt	14LPeroneusLong	15LSol	16LTibPost	17RAddLong	18RGlutMax	19RGlutMed	20RIliopsoas	21RSemiMemb	22RBicFemLong	23RRecFem	24RTensFascLat	25RVastMed	26RVasLat	27RGasMed	28RGasLat	29RTibAnt	30RPeroneusLong	31RSol	32RTibPost
11.762	0.22339	0.007477	0.021973	0.001831	0.027008	-0.035706	0.01297	0.028381	0.006866	-0.005493	0.007477	0.001831	-0.016479	0.008698	0.024414	-0.097504	-0.021973	-0.026398	-0.5661	0.027008	-0.23498	-0.13977	-0.013428	-0.27817	-0.14191	0.076752	0.016632	-0.010834	-0.013123	-0.023041	0.007172	0.019073
11.763	0.072632	0.00946	0.024719	-0.00946	0.032349	-0.045471	0.013885	0.021973	-0.002899	-0.005951	0.012207	0.00061	-0.024261	0.003815	0.018005	0.087128	-0.027924	-0.01236	-0.49652	-0.087738	-0.011139	-0.15396	-0.019073	-0.006256	-0.1413	0.053711	-0.000458	-0.0177	-0.003662	-0.020142	0.00885	0.022278
11.764	0.081787	0.005341	0.015106	-0.006561	0.035858	-0.041809	0.024261	0.023804	-0.001068	0.003815	-0.003662	0.005188	-0.036926	0.010986	0.005798	0.025177	-0.024261	-0.001526	-0.62027	0.18066	0.12222	0.041504	-0.023193	0.22095	-0.11108	0.037384	-0.001526	0.076141	-0.014801	-0.009308	-0.009613	-0.048981
11.765	0.053406	0.002899	-0.002747	-0.008545	0.02243	-0.04837	0.016327	0.021362	0.002136	-0.003967	0.008698	0.003357	-0.024719	0.014954	0.004425	-0.04364	-0.022888	-0.005798	-1.086	0.15564	0.18555	0.11566	-0.024567	0.31235	-0.085907	-0.029144	-0.020142	0.12695	-0.019073	-0.005188	0.003357	-0.12833
11.766	0.037689	-0.000305	-0.023956	-0.005951	0.033417	-0.043945	0.014038	0.019073	0.005188	-0.003052	0.001373	0.005798	-0.003815	0.017853	0.010223	-0.070953	-0.007782	0.004425	-1.2999	0.25925	0.18265	0.21255	-0.031281	0.40466	-0.036163	-0.071411	-0.02182	0.11429	-0.022278	-0.011139	0.009308	0.081635
11.767	-0.002594	-0.007172	-0.016327	-0.018311	0.046692	-0.037994	0.017548	0.028076	0.001984	0.004883	0.010834	0.006714	0.036621	0.013885	0.013733	0.011597	-0.013275	0.006714	-1.1946	0.082092	-0.032959	0.25665	-0.030365	0.52506	-0.001373	-0.15671	-0.013123	0.15549	-0.019531	-0.010834	0.018921	0.26916
11.768	-0.010834	0.004425	-0.010223	-0.019836	0.044861	-0.039215	0.024109	0.049133	0.003204	0.006866	0.00473	0.016022	-0.012207	0.022736	0.007019	-0.23987	-0.010834	0.018921	-0.7637	0.096741	-0.55618	-0.010834	-0.028839	0.4541	0.007477	-0.16357	0.005188	0.031433	-0.024414	-0.010681	0.037231	-0.019073
11.769	-0.027924	0.003357	0.009155	-0.009766	0.048218	-0.032806	0.01297	0.056305	0.009613	-0.000916	-0.005188	0.018463	-0.033722	0.023041	0.012512	0.032654	-0.041809	0.027618	-0.52033	0.014496	-0.59006	-0.10819	-0.005188	0.35965	0.015869	-0.003052	0.00473	-0.063782	-0.025787	-0.020294	0.02655	-0.10346
11.77	-0.020752	0.00473	0.004425	-0.003815	0.055237	-0.031281	-0.002289	0.072479	0.011597	-0.001373	0.005951	0.010681	-0.033112	0.017548	0.014801	0.04776	-0.051727	0.030975	-0.43137	-0.21896	-0.29358	-0.19684	0.001831	0.26703	0.099335	0.022125	0.008698	0.021515	-0.017548	-0.022125	0.027008	-0.042114
11.771	-0.034332	-0.003662	0.014954	-0.01358	0.044403	-0.032196	-0.011749	0.079803	0.014648	0.001526	-0.009766	0.017853	-0.033417	0.021515	0.016327	0.046234	-0.030975	0.024109	-0.30624	-0.077515	-0.12558	-0.31174	-0.013275	0.24658	0.15274	0.09613	-0.033417	0.042725	-0.015717	-0.028381	0.004425	-0.003967
11.772	-0.045624	0.002289	0.017853	-0.036316	0.050201	-0.045624	-0.019379	0.075684	0.01358	-0.021057	-0.004272	0.015411	-0.016937	0.019531	0.021515	0.057526	-0.027008	0.028076	0.065765	-0.012817	-0.13687	-0.48279	-0.000763	0.23514	0.089722	0.1915	-0.029602	-0.008545	-0.007935	-0.031433	-0.010681	0.035553
11.773	-0.050507	0.002289	0.015259	0.061951	0.046844	-0.048676	-0.025482	0.083313	0.019989	-0.010681	0.008698	0.014954	0.029755	0.015869	0.026703	-0.092926	-0.015106	0.027771	0.43655	-0.02243	-0.18478	-0.41596	-0.001984	0.15762	0.021515	0.23758	0.012665	-0.033417	-0.011749	-0.029297	-0.006561	0.031281
11.774	-0.05722	0.00351	-0.000763	0.085754	0.038147	-0.027771	-0.031433	0.057373	0.022888	-0.009155	-0.003204	-0.001068	0.10529	0.017853	0.028687	0.10452	-0.005646	0.020447	0.58624	0.00412	-0.11124	0.00885	-0.014191	0.089264	-0.041656	0.14786	-0.001068	0.11612	0.003662	-0.020599	0.00885	-0.017853
11.775	-0.27618	0.002441	-0.014496	-0.00351	0.037384	-0.034332	-0.032349	0.04303	0.014038	-0.007324	0.011292	0.00885	0.1091	0.017242	0.033722	-0.010529	0.000916	0.019836	0.62317	0.15961	0.009003	0.047607	-0.022278	0.01297	-0.014648	0.067291	-0.002594	0.044861	0.006256	-0.019836	0.006256	0.08728
11.776	-0.1622	0.004272	-0.021515	-0.019226	0.027008	-0.039825	-0.027466	0.002899	0.015259	-0.005646	0.015106	0.009613	0.049591	0.021362	0.033112	-0.025635	0.007172	0.020294	0.59052	0.17288	0.19272	-0.11093	-0.029297	-0.022278	-0.016022	-0.023499	0.001984	0.003815	-0.002594	-0.012054	0.025635	0.49835
11.777	-0.072021	0.010834	-0.043793	-0.001678	0.019531	-0.024872	-0.009155	0.022278	0.016022	-0.004883	0.016022	-0.000916	0.01297	0.027924	0.03418	-0.067902	0.018463	0.008698	0.45822	-0.085907	0.2298	-0.011292	-0.015411	0.04837	-0.060425	0.023804	-0.012512	-0.045776	-0.010834	-0.018311	0.061646	-0.037079
